<?xml version="1.0" encoding="UTF-8"?>
<svg version="1.1" xmlns="http://www.w3.org/2000/svg" width="1149" height="1369">
<path d="M0 0 C379.17 0 758.34 0 1149 0 C1149 451.77 1149 903.54 1149 1369 C769.83 1369 390.66 1369 0 1369 C0 917.23 0 465.46 0 0 Z " fill="#FBF6F0" transform="translate(0,0)"/>
<path d="M0 0 C1.03437032 -0.00170885 2.06874063 -0.0034177 3.1344555 -0.00517833 C6.56906439 -0.00844879 10.00347396 0.00248997 13.43806458 0.01345825 C15.91256201 0.01402289 18.38705977 0.01370477 20.86155701 0.01257324 C26.17288927 0.01211914 31.48416056 0.01775844 36.79547691 0.02904892 C44.47456525 0.04536196 52.15362988 0.05051784 59.83273367 0.0530249 C72.29412703 0.05739294 84.75549408 0.07067775 97.21687317 0.08963013 C109.31583017 0.10801207 121.41478001 0.12215723 133.51374817 0.13064575 C134.2605941 0.1311712 135.00744003 0.13169665 135.77691766 0.13223802 C139.52394252 0.13484825 143.27096743 0.13737563 147.01799238 0.13986182 C178.06143726 0.16056654 209.10484945 0.19591723 240.14826965 0.24050903 C238.79835561 2.99579319 237.37617652 5.45559579 235.5662384 7.93582153 C235.05294983 8.64255005 234.53966125 9.34927856 234.01081848 10.0774231 C233.45805237 10.83249146 232.90528625 11.58755981 232.33576965 12.36550903 C231.15601572 13.98785656 229.97633015 15.6102538 228.79670715 17.23269653 C228.19181458 18.06253052 227.586922 18.8923645 226.96369934 19.74734497 C224.6667765 22.90175272 222.37986245 26.06330024 220.09553528 29.22683716 C219.00692719 30.73424071 217.91708551 32.24075417 216.82600403 33.74636841 C214.31779158 37.21154162 211.82778226 40.68597181 209.39045715 44.20144653 C197.42226567 61.4265468 183.10281214 72.2308211 162.14826965 76.24050903 C157.39784017 76.57700503 152.68857815 76.53441462 147.92951965 76.43191528 C146.69363098 76.41809814 145.45774231 76.40428101 144.18440247 76.39004517 C141.17186311 76.35435502 138.16032328 76.30426436 135.14826965 76.24050903 C135.1547222 77.07704797 135.16117476 77.9135869 135.16782284 78.7754755 C135.32280234 99.18463319 135.43843802 119.59368864 135.51095486 140.00331211 C135.54696089 149.87352776 135.59599968 159.74334923 135.67634583 169.61331177 C135.74638916 178.22179204 135.79134156 186.82998667 135.80688912 195.43874401 C135.81596932 199.99193299 135.83711977 204.54430522 135.88838005 209.09723091 C135.93636213 213.39433925 135.95045777 217.69030483 135.94002342 221.98765564 C135.94192855 223.55366188 135.95557337 225.11971163 135.98270798 226.68548393 C136.2627852 243.70063605 129.49911988 257.41566343 117.89826965 269.92800903 C102.31524867 284.67808458 82.94365598 288.24050903 62.14826965 288.24050903 C62.14826965 218.28050903 62.14826965 148.32050903 62.14826965 76.24050903 C13.15295063 71.75434079 13.15295063 71.75434079 -27.85173035 90.24050903 C-39.07908199 102.99226402 -38.45479799 118.99770167 -38.46110535 134.94754028 C-38.47610992 137.12615677 -38.49284179 139.30476198 -38.51121521 141.48335266 C-38.55464512 147.17631596 -38.57483357 152.86912587 -38.58995056 158.56222534 C-38.61307541 165.41496879 -38.66547664 172.26754516 -38.71289062 179.12015533 C-38.78142842 189.49364984 -38.81310125 199.86666609 -38.85173035 210.24050903 C-62.94173035 210.24050903 -87.03173035 210.24050903 -111.85173035 210.24050903 C-111.97205677 186.87489933 -111.97205677 186.87489933 -111.99821472 176.78543091 C-112.01603154 169.94608429 -112.03692725 163.10686005 -112.07804871 156.26760864 C-112.11104999 150.74325421 -112.12866771 145.21903133 -112.13636208 139.6945858 C-112.14183345 137.6046511 -112.15251319 135.5147222 -112.16892052 133.42484474 C-112.30341651 115.55518511 -111.59164224 97.39506466 -105.22673035 80.49050903 C-104.88118103 79.54006714 -104.53563171 78.58962524 -104.17961121 77.61038208 C-92.78249758 47.22403767 -71.46996376 22.92661073 -41.97673035 9.02957153 C-28.63329158 3.04912345 -14.61117066 -0.09011353 0 0 Z " fill="#C75E17" transform="translate(503.8517303466797,503.7594909667969)"/>
<path d="M0 0 C1.4531745 -0.00087372 2.90634869 -0.00262775 4.35952121 -0.00517833 C8.32526021 -0.00962319 12.29088995 -0.00168787 16.25661504 0.00837779 C20.5434418 0.01705154 24.83026288 0.01408936 29.11709595 0.01257324 C36.53522884 0.01152687 43.95332642 0.01777757 51.37145042 0.02904892 C62.09667789 0.04533455 72.82188837 0.05051506 83.54712687 0.0530249 C100.95003211 0.0573972 118.35291856 0.07069368 135.7558136 0.08963013 C152.65652879 0.10800097 169.55723887 0.12215158 186.45796204 0.13064575 C187.50052053 0.1311712 188.54307902 0.13169665 189.6172302 0.13223802 C194.84767813 0.13484818 200.07812609 0.13737557 205.30857408 0.13986182 C248.66901134 0.16057984 292.0294281 0.1957927 335.3898468 0.24050903 C334.17806768 3.357923 333.04520298 5.9845173 330.9914093 8.63113403 C330.51840393 9.24907837 330.04539856 9.86702271 329.55805969 10.50369263 C329.04879944 11.15934204 328.53953918 11.81499146 328.0148468 12.49050903 C323.71354051 18.12374469 319.51703406 23.80910294 315.4523468 29.61550903 C309.73554214 37.77021142 303.91822892 45.84849403 298.0749054 53.91287231 C296.30890103 56.35232256 294.54620017 58.79413053 292.78437805 61.23660278 C292.19519592 62.05330444 291.60601379 62.8700061 290.99897766 63.7114563 C289.87069629 65.27561041 288.74259428 66.83989391 287.61470032 68.40432739 C287.10479553 69.11081421 286.59489075 69.81730103 286.0695343 70.54519653 C285.40026917 71.47307983 285.40026917 71.47307983 284.71748352 72.41970825 C284.06030334 73.32100464 284.06030334 73.32100464 283.3898468 74.24050903 C282.96826931 74.92776233 282.54669182 75.61501563 282.11233926 76.32309479 C280.3898468 78.24050903 280.3898468 78.24050903 278.16219878 78.74026304 C276.84556412 78.74010204 276.84556412 78.74010204 275.50233078 78.73993778 C274.48845661 78.74953528 273.47458244 78.75913277 272.42998481 78.76902109 C271.31279823 78.75921432 270.19561164 78.74940754 269.04457092 78.73930359 C267.26800531 78.74738042 267.26800531 78.74738042 265.45554948 78.75562042 C262.16170207 78.76662468 258.86876007 78.75968012 255.57498264 78.74533737 C252.0245874 78.73424461 248.47426371 78.7462093 244.9238739 78.75552368 C238.7671804 78.7686328 232.6106226 78.76743639 226.45392609 78.7569294 C217.5360106 78.74199449 208.61825434 78.75190245 199.70034793 78.76844858 C185.21077558 78.79493343 170.7212389 78.80576787 156.23164368 78.80471802 C155.36401532 78.80465969 154.49638697 78.80460137 153.60246685 78.80454128 C150.08797694 78.80427549 146.57348704 78.80395823 143.05899714 78.80357802 C133.41016529 78.80261381 123.76133453 78.80393651 114.11250305 78.80667114 C113.24956956 78.80691103 112.38663607 78.80715093 111.49755308 78.80739809 C97.07727995 78.81181426 82.6570398 78.82808959 68.23678613 78.85189193 C59.3500384 78.8659238 50.46341657 78.86887737 41.5766646 78.85726904 C35.47516964 78.84991134 29.37373778 78.85305494 23.27224883 78.86422748 C19.75849441 78.87026418 16.244917 78.87148889 12.73117447 78.8593502 C-18.16093397 78.77291474 -43.04998395 84.31497227 -67.6101532 104.24050903 C-68.46351257 104.92757935 -69.31687195 105.61464966 -70.1960907 106.32254028 C-88.20596768 121.63377639 -99.08313009 143.53675964 -109.6101532 164.24050903 C-109.9401532 164.24050903 -110.2701532 164.24050903 -110.6101532 164.24050903 C-110.70366167 155.53770123 -110.77432147 146.83507163 -110.81740189 138.13186741 C-110.83809929 134.08871526 -110.86608098 130.04591177 -110.91191101 126.00296021 C-110.95601798 122.08659988 -110.97942362 118.17057055 -110.98966217 114.25398064 C-110.99693932 112.7747471 -111.01114137 111.29552751 -111.03307343 109.81643867 C-111.44202158 81.03953448 -99.35565233 53.50946287 -79.57157898 32.72756958 C-70.72950484 23.7577198 -61.11275465 16.50313715 -49.6101532 11.24050903 C-49.04941101 10.92855591 -48.48866882 10.61660278 -47.91093445 10.29519653 C-43.40633107 7.81326756 -38.68773915 6.170038 -33.7976532 4.61550903 C-33.1582782 4.4093396 -32.5189032 4.20317017 -31.8601532 3.99075317 C-21.27129881 0.73457477 -11.03976695 -0.04979842 0 0 Z " fill="#4A2812" transform="translate(503.6101531982422,373.7594909667969)"/>
<path d="M0 0 C1.47884064 0.00188135 2.95768193 0.00329701 4.43652344 0.00428772 C8.19752956 0.00797864 11.95849255 0.0176806 15.71948242 0.0289917 C19.60985735 0.03950791 23.50023975 0.04384768 27.390625 0.04882812 C34.92710231 0.05932608 42.46354496 0.07622378 50 0.09765625 C50 0.42765625 50 0.75765625 50 1.09765625 C41.09 1.09765625 32.18 1.09765625 23 1.09765625 C23.02331642 4.14839134 23.02331642 4.14839134 23.04710388 7.26075745 C23.19046086 26.46054301 23.29446553 45.66025768 23.3626852 64.86045933 C23.39869124 74.73067498 23.44773003 84.60049644 23.52807617 94.47045898 C23.5981195 103.07893926 23.64307191 111.68713388 23.65861946 120.29589123 C23.66769967 124.84908021 23.68885012 129.40145244 23.7401104 133.95437813 C23.78809247 138.25148646 23.80218811 142.54745205 23.79175377 146.84480286 C23.7936589 148.4108091 23.80730371 149.97685885 23.83443832 151.54263115 C24.11451554 168.55778327 17.35085023 182.27281064 5.75 194.78515625 C-9.83302099 209.53523179 -29.20461367 213.09765625 -50 213.09765625 C-50 143.13765625 -50 73.17765625 -50 1.09765625 C-13.19065484 -0.05263579 -13.19065484 -0.05263579 0 0 Z " fill="#DC8B1D" transform="translate(616,578.90234375)"/>
<path d="M0 0 C2.54296875 1.66796875 2.54296875 1.66796875 4.9375 3.5 C5.75863281 4.11488281 6.57976562 4.72976563 7.42578125 5.36328125 C15.72588327 12.1419243 19.81193985 19.88322993 20.9375 30.5 C22.04930699 42.42938853 19.53393364 51.55895163 11.875 60.875 C5.24726178 67.79235367 -3.87011802 72.53181183 -13.5078125 72.79248047 C-24.86754697 72.89989493 -33.55789632 70.43640817 -42.0625 62.5 C-50.53026856 53.22857748 -53.48913866 43.0349038 -53.3359375 30.65625 C-52.54840663 21.56589365 -48.43000542 13.92814832 -42.0625 7.5 C-30.55135154 -2.1520886 -14.20334662 -7.36246922 0 0 Z " fill="#F9F4EE" transform="translate(422.0625,864.5)"/>
<path d="M0 0 C12 0 12 0 15.0078125 2.75390625 C15.75701416 3.99827763 16.46110116 5.27060156 17.125 6.5625 C17.94685264 7.96156308 18.76979783 9.35998487 19.59375 10.7578125 C20.19509766 11.82950684 20.19509766 11.82950684 20.80859375 12.92285156 C22.59345379 16.03465263 24.60500166 18.97528066 26.625 21.9375 C27.44284999 23.16049409 28.25916932 24.38451272 29.07421875 25.609375 C29.74783447 26.61967773 29.74783447 26.61967773 30.43505859 27.65039062 C32.31920648 30.4792579 34.20054514 33.30998671 36.08203125 36.140625 C37.53385181 38.32291824 38.98567473 40.5052099 40.4375 42.6875 C41.13633301 43.73993896 41.83516602 44.79237793 42.55517578 45.87670898 C43.21630371 46.87001221 43.87743164 47.86331543 44.55859375 48.88671875 C45.14954834 49.77576904 45.74050293 50.66481934 46.34936523 51.58081055 C47.42228835 53.1532991 48.54287412 54.69464704 49.71508789 56.19458008 C51 58 51 58 51 60 C51.66 60 52.32 60 53 60 C53.28413254 59.4113063 53.56826508 58.82261261 53.86100769 58.21607971 C54.88490427 56.22393594 55.98179942 54.40352845 57.22387695 52.54272461 C57.6627272 51.8830217 58.10157745 51.22331879 58.5537262 50.54362488 C59.02712936 49.83700211 59.50053253 49.13037933 59.98828125 48.40234375 C60.48315536 47.65926468 60.97802948 46.91618561 61.48789978 46.15058899 C64.18929351 42.09830047 66.90478555 38.05561592 69.62597656 34.01660156 C70.72090325 32.39010866 71.81563144 30.76348212 72.91015625 29.13671875 C73.44696014 28.33944366 73.98376404 27.54216858 74.53683472 26.72073364 C77.47831831 22.33335599 80.32336782 17.91325456 83.05859375 13.39453125 C83.61571045 12.49935791 84.17282715 11.60418457 84.74682617 10.68188477 C85.71296675 9.11883031 86.64731932 7.53542665 87.5402832 5.92944336 C88.828125 3.890625 88.828125 3.890625 92 1 C95.96 1 99.92 1 104 1 C104 34 104 67 104 101 C100.37 101 96.74 101 93 101 C93 74.6 93 48.2 93 21 C92.34 21 91.68 21 91 21 C90.77957031 21.66773438 90.55914063 22.33546875 90.33203125 23.0234375 C88.58179846 26.93451488 86.19909193 30.16820684 83.6875 33.625 C82.59771788 35.14624755 81.50922229 36.66841739 80.421875 38.19140625 C79.85791016 38.98047363 79.29394531 39.76954102 78.71289062 40.58251953 C75.90658167 44.54319104 73.17145261 48.55169239 70.4375 52.5625 C69.90108887 53.34681396 69.36467773 54.13112793 68.81201172 54.93920898 C66.12678717 58.86810368 63.45609929 62.80601636 60.8046875 66.7578125 C60.3001001 67.50474365 59.7955127 68.2516748 59.27563477 69.02124023 C58.31993509 70.43621158 57.36964762 71.85485772 56.42553711 73.27758789 C55.33462739 74.8874438 54.17397122 76.4496737 53 78 C52.34 78 51.68 78 51 78 C49.49462891 76.06665039 49.49462891 76.06665039 47.7265625 73.34765625 C47.07260498 72.35185547 46.41864746 71.35605469 45.74487305 70.33007812 C45.04531494 69.25177734 44.34575684 68.17347656 43.625 67.0625 C42.16717995 64.84385818 40.70753312 62.62641566 39.24609375 60.41015625 C38.52405762 59.31461426 37.80202148 58.21907227 37.05810547 57.09033203 C33.93802807 52.40540442 30.70089095 47.80950019 27.42236328 43.23461914 C22.17080037 35.89379981 17.11878199 28.44550107 12 21 C11.67 47.73 11.34 74.46 11 102 C7.37 102 3.74 102 0 102 C0 68.34 0 34.68 0 0 Z " fill="#52301A" transform="translate(575,834)"/>
<path d="M0 0 C7.00623669 5.15890575 12.94948217 10.68040592 16 19 C16.4125 20.051875 16.825 21.10375 17.25 22.1875 C18.33280247 27.69174589 18 33.3902599 18 39 C-1.14 39 -20.28 39 -40 39 C-37.8253731 48.78582103 -35.99128424 53.20240163 -28 59 C-21.88985352 62.54388496 -15.97298048 62.92464096 -9 62 C-3.25214432 60.24333685 1.7845473 58.34358197 6 54 C8.51808551 54.15738034 9.77590488 54.83772423 11.8125 56.3125 C13 58 13 58 12.78515625 59.91796875 C11.00588857 64.63612633 5.87016945 66.99889123 1.62109375 69.2734375 C-7.73888514 73.30322994 -19.73151421 73.88458031 -29.4375 70.5625 C-38.7581507 66.07713567 -46.82531581 57.67229426 -50.8125 48.125 C-53.85518812 37.83614133 -53.22052098 26.20757151 -48.5546875 16.5859375 C-46.13765981 12.56565526 -43.37024562 9.24906825 -40 6 C-38.63875 4.63875 -38.63875 4.63875 -37.25 3.25 C-26.47394712 -4.2103443 -11.95174907 -5.81795852 0 0 Z " fill="#54331E" transform="translate(872,865)"/>
<path d="M0 0 C4.62099877 3.72778796 6.02123838 7.84002843 6.98046875 13.59765625 C7.23954455 17.72538772 7.21395444 21.83818353 7.17578125 25.97265625 C7.17295135 27.13772705 7.17012146 28.30279785 7.16720581 29.50317383 C7.15606682 33.20144187 7.13097354 36.89946217 7.10546875 40.59765625 C7.09543085 43.11457982 7.08630641 45.63150721 7.078125 48.1484375 C7.05614801 54.29827163 7.02166132 60.44792202 6.98046875 66.59765625 C3.68046875 66.59765625 0.38046875 66.59765625 -3.01953125 66.59765625 C-3.01953125 63.29765625 -3.01953125 59.99765625 -3.01953125 56.59765625 C-3.92445313 57.30341797 -3.92445313 57.30341797 -4.84765625 58.0234375 C-6.04648437 58.95736328 -6.04648437 58.95736328 -7.26953125 59.91015625 C-8.0584375 60.52503906 -8.84734375 61.13992188 -9.66015625 61.7734375 C-10.43875 62.37542969 -11.21734375 62.97742188 -12.01953125 63.59765625 C-12.674375 64.14808594 -13.32921875 64.69851563 -14.00390625 65.265625 C-20.05984124 69.26770607 -29.04544125 68.10831138 -36.01953125 67.59765625 C-42.78304639 65.99373694 -47.74665844 61.99496927 -52.01953125 56.59765625 C-55.12423952 51.49558567 -54.67157526 45.82731171 -53.51953125 40.12109375 C-51.7142485 33.98723533 -48.87157987 30.57215145 -43.58203125 26.91015625 C-38.21047534 24.15887152 -33.67685486 23.3525544 -27.65234375 23.40234375 C-26.97275604 23.40517365 -26.29316833 23.40800354 -25.59298706 23.41091919 C-23.44331517 23.42202661 -21.29407511 23.44711234 -19.14453125 23.47265625 C-17.67839148 23.4826983 -16.21224511 23.491822 -14.74609375 23.5 C-11.17043494 23.52193466 -7.59502531 23.55639811 -4.01953125 23.59765625 C-4.1404989 21.66085905 -4.2728861 19.72477257 -4.41015625 17.7890625 C-4.48266602 16.71084229 -4.55517578 15.63262207 -4.62988281 14.52172852 C-5.26560195 9.75104673 -7.4239314 7.8275978 -11.08203125 5.0078125 C-15.17551506 3.04272253 -18.78105151 3.06665906 -23.26953125 3.09765625 C-24.119104 3.09757568 -24.96867676 3.09749512 -25.84399414 3.09741211 C-31.56685649 3.23004119 -35.68522027 4.02487806 -40.328125 7.6015625 C-42.01953125 8.59765625 -42.01953125 8.59765625 -44.1328125 8.37890625 C-46.63589241 7.34243424 -47.57394105 5.83832106 -49.01953125 3.59765625 C-47.8074293 -0.17332759 -45.55488753 -1.66884962 -42.11328125 -3.453125 C-27.21091851 -10.20923348 -13.34328809 -8.85616466 0 0 Z " fill="#51301A" transform="translate(749.01953125,869.40234375)"/>
<path d="M0 0 C3.63 0 7.26 0 11 0 C15.82394912 12.76670522 20.3758612 25.61721726 24.3125 38.6875 C24.55460205 39.48768555 24.7967041 40.28787109 25.04614258 41.11230469 C26.60133077 46.36319052 27.87982447 51.63990028 29 57 C29.66 57 30.32 57 31 57 C31.0825 56.05125 31.165 55.1025 31.25 54.125 C31.68873953 51.06255253 32.52990387 48.49032356 33.734375 45.64453125 C36.43408433 39.04658692 38.70452807 32.30913858 41 25.5625 C43.9200264 17.01036207 46.88150341 8.48202198 50 0 C53.3 0 56.6 0 60 0 C63.23144707 7.11723701 65.53788184 14.50577514 67.95117188 21.93164062 C69.81350908 27.60477188 71.81752037 33.16312065 74.07836914 38.68920898 C75.44732934 42.12158204 76.60983066 45.61127057 77.75 49.125 C77.97042969 49.7953125 78.19085937 50.465625 78.41796875 51.15625 C78.94816741 52.76989809 79.47452413 54.38480779 80 56 C80.60328125 54.19015625 80.60328125 54.19015625 81.21875 52.34375 C89.84375 26.46875 89.84375 26.46875 90.96557617 23.10522461 C91.60274813 21.19250568 92.23861378 19.27935031 92.87231445 17.36547852 C94.80473354 11.53400834 96.88288008 5.76732667 99 0 C102.63 0 106.26 0 110 0 C107.72027131 8.86561157 104.88595469 17.49833366 101.95361328 26.16259766 C100.8620388 29.41049285 99.78770504 32.66384497 98.71484375 35.91796875 C98.31797363 37.11873047 97.92110352 38.31949219 97.51220703 39.55664062 C96.72596448 41.93616834 95.94171176 44.31635466 95.15966797 46.69726562 C93.31784956 52.25435048 91.37567724 57.65125299 89 63 C88.41393987 64.63759187 87.84721465 66.28243086 87.3125 67.9375 C86.879375 69.278125 86.44625 70.61875 86 72 C82.37 72 78.74 72 75 72 C69.93172913 59.23492809 65.34311511 46.33901835 61 33.3125 C60.75108002 32.56896271 60.50216003 31.82542542 60.24569702 31.05935669 C59.53495069 28.93275225 58.82896062 26.80464039 58.125 24.67578125 C57.71507812 23.43739502 57.30515625 22.19900879 56.8828125 20.9230957 C56 18 56 18 56 16 C55.34 16 54.68 16 54 16 C53.89300781 16.99773438 53.78601563 17.99546875 53.67578125 19.0234375 C53.08951142 23.11192517 51.7188144 26.80682868 50.1875 30.625 C48.24133651 35.6239576 46.4519381 40.59842776 44.9375 45.75 C43.35743458 51.06955357 41.36620991 56.09447577 39.171875 61.1875 C37.55674138 65.06382068 36.26733668 68.99788417 35 73 C31.37 73 27.74 73 24 73 C23.62190186 71.83017578 23.24380371 70.66035156 22.85424805 69.45507812 C21.44156993 65.08598107 20.02644043 60.71768119 18.6105957 56.34960938 C17.99990772 54.46440701 17.38987131 52.57899343 16.78051758 50.69335938 C15.90099469 47.97208825 15.0190769 45.25160294 14.13671875 42.53125 C13.86784348 41.69758911 13.5989682 40.86392822 13.32194519 40.00500488 C11.67822025 34.94680207 9.88667678 29.97257594 8 25 C7.3925908 23.25902604 6.79475564 21.51465119 6.2109375 19.765625 C5.90929687 18.86199219 5.60765625 17.95835937 5.296875 17.02734375 C4.99265625 16.11082031 4.6884375 15.19429687 4.375 14.25 C4.06304687 13.31800781 3.75109375 12.38601563 3.4296875 11.42578125 C3.130625 10.52730469 2.8315625 9.62882813 2.5234375 8.703125 C2.25450684 7.89520508 1.98557617 7.08728516 1.70849609 6.25488281 C1.06061979 4.19293054 0.52420196 2.09680785 0 0 Z " fill="#50301A" transform="translate(448,863)"/>
<path d="M0 0 C22.44 0 44.88 0 68 0 C68 3.3 68 6.6 68 10 C49.19 10 30.38 10 11 10 C11 21.55 11 33.1 11 45 C26.84 45 42.68 45 59 45 C59 47.97 59 50.94 59 54 C43.16 54 27.32 54 11 54 C11 69.51 11 85.02 11 101 C7.37 101 3.74 101 0 101 C0 67.67 0 34.34 0 0 Z " fill="#512F19" transform="translate(260,835)"/>
<path d="M0 0 C2.54296875 1.66796875 2.54296875 1.66796875 4.9375 3.5 C5.75863281 4.11488281 6.57976562 4.72976563 7.42578125 5.36328125 C15.72588327 12.1419243 19.81193985 19.88322993 20.9375 30.5 C22.04930699 42.42938853 19.53393364 51.55895163 11.875 60.875 C5.24726178 67.79235367 -3.87011802 72.53181183 -13.5078125 72.79248047 C-24.86754697 72.89989493 -33.55789632 70.43640817 -42.0625 62.5 C-50.53026856 53.22857748 -53.48913866 43.0349038 -53.3359375 30.65625 C-52.54840663 21.56589365 -48.43000542 13.92814832 -42.0625 7.5 C-30.55135154 -2.1520886 -14.20334662 -7.36246922 0 0 Z M-37 16.9375 C-37.71376956 18.10939825 -38.4031879 19.2966214 -39.0625 20.5 C-39.660625 21.49 -40.25875 22.48 -40.875 23.5 C-43.69434258 30.66177827 -43.33630324 40.44098959 -40.4375 47.5 C-37.04333785 53.85655809 -32.42836758 59.80805977 -25.328125 62.046875 C-16.93518946 63.72546211 -8.63321449 63.4099878 -1.18359375 59.04296875 C5.03679578 54.51800768 8.60303421 49.10207973 9.9375 41.5 C10.84619325 32.30200503 10.8409418 24.00852506 4.9375 16.5 C2.13284887 13.82510141 -0.78445887 11.56416901 -4.0625 9.5 C-4.65675781 9.1184375 -5.25101562 8.736875 -5.86328125 8.34375 C-16.99230954 4.07399847 -29.83434724 7.62215142 -37 16.9375 Z " fill="#52311B" transform="translate(422.0625,864.5)"/>
<path d="M0 0 C2.31 0 4.62 0 7 0 C7 6.27 7 12.54 7 19 C13.93 19 20.86 19 28 19 C28 21.64 28 24.28 28 27 C21.07 27 14.14 27 7 27 C7.05107893 33.72709574 7.11405809 40.45188957 7.20751953 47.17822266 C7.23570652 49.46525621 7.25693231 51.75238677 7.27099609 54.03955078 C7.29245638 57.33155906 7.33912471 60.62240378 7.390625 63.9140625 C7.39185364 64.93303619 7.39308228 65.95200989 7.39434814 67.00186157 C7.51577997 72.91710453 7.96629689 76.5396463 12 81 C14.59325015 81.79564262 14.59325015 81.79564262 17.375 81.5 C18.33792969 81.4484375 19.30085937 81.396875 20.29296875 81.34375 C23.38834687 80.95068611 26.13401956 80.23934289 29 79 C29.495 83.455 29.495 83.455 30 88 C23.35720722 92.08787248 17.76488508 93.0573915 10 92 C4.33845367 90.1060659 0.90401251 86.19207891 -2.09127808 81.17047119 C-3.18599028 78.55576448 -3.24079638 76.60405468 -3.22705078 73.77246094 C-3.22689972 72.73168396 -3.22674866 71.69090698 -3.22659302 70.61859131 C-3.21627045 69.50179993 -3.20594788 68.38500854 -3.1953125 67.234375 C-3.1924826 66.08584045 -3.18965271 64.93730591 -3.18673706 63.75396729 C-3.17554263 60.08587219 -3.15043904 56.4180213 -3.125 52.75 C-3.11496926 50.26302436 -3.10584358 47.77604489 -3.09765625 45.2890625 C-3.07560564 39.19261425 -3.04108052 33.09634853 -3 27 C-6.96 27 -10.92 27 -15 27 C-15 24.36 -15 21.72 -15 19 C-11.04 19 -7.08 19 -3 19 C-3.061875 17.72125 -3.12375 16.4425 -3.1875 15.125 C-3.21325153 9.72576189 -1.77385997 5.05761265 0 0 Z " fill="#4E2C16" transform="translate(783,845)"/>
<path d="M0 0 C3.63 0 7.26 0 11 0 C11 33.33 11 66.66 11 101 C7.37 101 3.74 101 0 101 C0 67.67 0 34.34 0 0 Z " fill="#53321D" transform="translate(344,835)"/>
<path d="M0 0 C1.29873047 0.00322266 2.59746094 0.00644531 3.93554688 0.00976562 C5.30729233 0.01812094 6.67903712 0.02658588 8.05078125 0.03515625 C9.4342432 0.0401729 10.81770688 0.04473552 12.20117188 0.04882812 C15.5885852 0.06063096 18.97591158 0.07709606 22.36328125 0.09765625 C22.4293998 2.17144276 22.47651106 4.24584094 22.515625 6.3203125 C22.54390381 7.47539307 22.57218262 8.63047363 22.60131836 9.82055664 C22.22627577 14.98383534 20.07571256 17.67973932 16.36328125 21.09765625 C15.45255859 21.99677734 15.45255859 21.99677734 14.5234375 22.9140625 C9.7633362 26.85188143 5.2456017 27.650578 -0.82421875 27.72265625 C-1.50145996 27.73361328 -2.17870117 27.74457031 -2.87646484 27.75585938 C-7.87478169 27.6136458 -10.78046836 26.19511434 -14.63671875 23.09765625 C-17.42794068 19.79226186 -18.54506355 17.84399144 -19.07421875 13.53515625 C-18.59638501 9.78074829 -18.00974042 8.02438297 -15.63671875 5.09765625 C-10.24625121 1.0548056 -6.66375388 -0.02909936 0 0 Z " fill="#F3EDE6" transform="translate(723.63671875,900.90234375)"/>
<path d="M0 0 C6.56157703 3.18069666 10.00251538 8.82534325 13.1796875 15.1796875 C13.1796875 17.4896875 13.1796875 19.7996875 13.1796875 22.1796875 C-2.3303125 22.1796875 -17.8403125 22.1796875 -33.8203125 22.1796875 C-33.8203125 12.8006955 -32.2294674 9.73862261 -25.98046875 3.27734375 C-18.75027163 -2.62060975 -8.66221487 -2.51948078 0 0 Z " fill="#F7F2ED" transform="translate(865.8203125,872.8203125)"/>
<path d="M0 0 C6 0 6 0 7.91870117 1.68066406 C8.45470947 2.45120117 8.99071777 3.22173828 9.54296875 4.015625 C10.14173828 4.85480469 10.74050781 5.69398438 11.35742188 6.55859375 C11.96134766 7.44675781 12.56527344 8.33492187 13.1875 9.25 C13.80302734 10.12269531 14.41855469 10.99539063 15.05273438 11.89453125 C16.20075348 13.52389748 17.34060516 15.1590715 18.46948242 16.80175781 C19.93176951 18.90200235 21.46450274 20.95267032 23 23 C23.33 15.74 23.66 8.48 24 1 C25.65 1 27.3 1 29 1 C29 11.56 29 22.12 29 33 C23 33 23 33 21.04956055 31.3034668 C20.50082275 30.52656494 19.95208496 29.74966309 19.38671875 28.94921875 C18.77892578 28.10552734 18.17113281 27.26183594 17.54492188 26.39257812 C16.93197266 25.49990234 16.31902344 24.60722656 15.6875 23.6875 C15.05521484 22.80642578 14.42292969 21.92535156 13.77148438 21.01757812 C9.18389383 14.55168148 9.18389383 14.55168148 8 11 C7.34 11 6.68 11 6 11 C6 18.59 6 26.18 6 34 C4.02 34 2.04 34 0 34 C0 22.78 0 11.56 0 0 Z " fill="#CC6724" transform="translate(621,968)"/>
<path d="M0 0 C1.4540625 0.0309375 1.4540625 0.0309375 2.9375 0.0625 C6.75025471 7.2980686 10.12983167 14.65713024 13.3125 22.1875 C13.67021484 23.02901611 14.02792969 23.87053223 14.39648438 24.73754883 C14.89245117 25.92320435 14.89245117 25.92320435 15.3984375 27.1328125 C15.69540527 27.84195801 15.99237305 28.55110352 16.29833984 29.28173828 C16.9375 31.0625 16.9375 31.0625 16.9375 33.0625 C14.9575 33.0625 12.9775 33.0625 10.9375 33.0625 C9.4525 29.5975 9.4525 29.5975 7.9375 26.0625 C2.3275 25.7325 -3.2825 25.4025 -9.0625 25.0625 C-9.3925 26.7125 -9.7225 28.3625 -10.0625 30.0625 C-10.3925 31.0525 -10.7225 32.0425 -11.0625 33.0625 C-13.0425 33.0625 -15.0225 33.0625 -17.0625 33.0625 C-14.79267099 25.84714951 -11.98131005 18.98343985 -8.9375 12.0625 C-8.48246094 11.01449219 -8.02742188 9.96648438 -7.55859375 8.88671875 C-3.70732671 0.07565973 -3.70732671 0.07565973 0 0 Z " fill="#D17330" transform="translate(441.0625,968.9375)"/>
<path d="M0 0 C0.91644287 0.00523682 1.83288574 0.01047363 2.77709961 0.01586914 C3.76645508 0.0190918 4.75581055 0.02231445 5.77514648 0.02563477 C6.81606445 0.03401367 7.85698242 0.04239258 8.92944336 0.05102539 C10.49662109 0.05779297 10.49662109 0.05779297 12.09545898 0.06469727 C14.68600996 0.07652627 17.27644895 0.0930085 19.86694336 0.11352539 C19.86694336 1.76352539 19.86694336 3.41352539 19.86694336 5.11352539 C14.25694336 5.11352539 8.64694336 5.11352539 2.86694336 5.11352539 C2.86694336 8.41352539 2.86694336 11.71352539 2.86694336 15.11352539 C7.81694336 15.11352539 12.76694336 15.11352539 17.86694336 15.11352539 C17.86694336 16.43352539 17.86694336 17.75352539 17.86694336 19.11352539 C12.91694336 19.11352539 7.96694336 19.11352539 2.86694336 19.11352539 C2.86694336 22.41352539 2.86694336 25.71352539 2.86694336 29.11352539 C8.47694336 29.11352539 14.08694336 29.11352539 19.86694336 29.11352539 C19.86694336 30.76352539 19.86694336 32.41352539 19.86694336 34.11352539 C12.27694336 34.11352539 4.68694336 34.11352539 -3.13305664 34.11352539 C-3.15596752 29.43206828 -3.17589396 24.75080437 -3.18798828 20.06933594 C-3.19302821 18.47557925 -3.19986014 16.8818272 -3.20849609 15.28808594 C-3.22057663 13.00202286 -3.22628819 10.71602072 -3.23071289 8.42993164 C-3.23587418 7.71325821 -3.24103546 6.99658478 -3.24635315 6.25819397 C-3.24654927 4.54288867 -3.19497671 2.82771273 -3.13305664 1.11352539 C-2.13305664 0.11352539 -2.13305664 0.11352539 0 0 Z " fill="#CD6A23" transform="translate(560.133056640625,967.886474609375)"/>
<path d="M0 0 C2.34534325 1.46583953 3.05796011 2.6808003 4 5.25 C2.25 6.375 2.25 6.375 0 7.25 C-1.33333333 6.58333333 -2.66666667 5.91666667 -4 5.25 C-6.69155743 5.06366141 -9.29715003 5.159905 -12 5.25 C-12.33 6.9 -12.66 8.55 -13 10.25 C-11.5459375 10.86875 -11.5459375 10.86875 -10.0625 11.5 C-8.7082561 12.08315401 -7.35409785 12.66650693 -6 13.25 C-4.81277344 13.75466797 -4.81277344 13.75466797 -3.6015625 14.26953125 C-2.80492187 14.61371094 -2.00828125 14.95789063 -1.1875 15.3125 C-0.43855469 15.63347656 0.31039062 15.95445312 1.08203125 16.28515625 C3 17.25 3 17.25 5 19.25 C5.55944056 26.18706294 5.55944056 26.18706294 3.75 29.625 C-0.52659945 33.59612806 -4.66167467 33.67585215 -10.29296875 33.5703125 C-14.30972085 33.09502582 -16.10817123 32.06367123 -19 29.25 C-19 27.93 -19 26.61 -19 25.25 C-15 25.25 -15 25.25 -13.25 26.25 C-9.77779083 27.79320408 -6.78460325 27.43312596 -3 27.25 C-2.34 26.92 -1.68 26.59 -1 26.25 C-0.34444881 23.72266765 -0.34444881 23.72266765 0 21.25 C-0.79664063 21.09144531 -1.59328125 20.93289063 -2.4140625 20.76953125 C-8.92286897 19.33632691 -13.37077815 18.12945006 -18 13.25 C-19.58939347 10.07121306 -19.41576711 7.7543228 -19 4.25 C-13.83584272 -2.13724716 -7.59540641 -1.8988516 0 0 Z " fill="#CE6D28" transform="translate(776,968.75)"/>
<path d="M0 0 C8.91 0 17.82 0 27 0 C27 1.65 27 3.3 27 5 C26.67 5.33 26.34 5.66 26 6 C22.7 6 19.4 6 16 6 C16 15.24 16 24.48 16 34 C14.02 34 12.04 34 10 34 C10 24.76 10 15.52 10 6 C6.7 6 3.4 6 0 6 C0 4.02 0 2.04 0 0 Z " fill="#D48247" transform="translate(691,968)"/>
<path d="M0 0 C1.98 0 3.96 0 6 0 C6 9.57 6 19.14 6 29 C10.95 29 15.9 29 21 29 C21 30.65 21 32.3 21 34 C14.07 34 7.14 34 0 34 C0 22.78 0 11.56 0 0 Z " fill="#D17739" transform="translate(497,968)"/>
<path d="M0 0 C3.125 -0.1875 3.125 -0.1875 6 0 C9.81275471 7.2355686 13.19233167 14.59463024 16.375 22.125 C16.73271484 22.96651611 17.09042969 23.80803223 17.45898438 24.67504883 C17.78962891 25.46548584 18.12027344 26.25592285 18.4609375 27.0703125 C18.75790527 27.77945801 19.05487305 28.48860352 19.36083984 29.21923828 C20 31 20 31 20 33 C18.02 33 16.04 33 14 33 C13.01 30.03 12.02 27.06 11 24 C5.72 24 0.44 24 -5 24 C-2 21 -2 21 0.69921875 20.70703125 C1.68535156 20.74183594 2.67148437 20.77664063 3.6875 20.8125 C5.17830078 20.85310547 5.17830078 20.85310547 6.69921875 20.89453125 C7.83810547 20.94673828 7.83810547 20.94673828 9 21 C8.6390625 20.15695312 8.278125 19.31390625 7.90625 18.4453125 C7.4421875 17.34960938 6.978125 16.25390625 6.5 15.125 C6.0359375 14.03445313 5.571875 12.94390625 5.09375 11.8203125 C4 9 4 9 4 7 C3.34 7 2.68 7 2 7 C2 7.66 2 8.32 2 9 C0.35 9.33 -1.3 9.66 -3 10 C-2.25 3.375 -2.25 3.375 0 0 Z " fill="#C76825" transform="translate(438,969)"/>
<path d="M0 0 C8.58 0 17.16 0 26 0 C26 1.32 26 2.64 26 4 C22.37 4 18.74 4 15 4 C15 13.57 15 23.14 15 33 C13.35 33 11.7 33 10 33 C10 23.43 10 13.86 10 4 C6.7 4 3.4 4 0 4 C0 2.68 0 1.36 0 0 Z " fill="#D0702B" transform="translate(366,969)"/>
<path d="M0 0 C6 0 6 0 7.96875 1.5390625 C9.5273323 3.66223328 10.9071632 5.59920104 12 8 C11.375 11.5 11.375 11.5 10 14 C9.34 13.67 8.68 13.34 8 13 C8 12.34 8 11.68 8 11 C7.34 11 6.68 11 6 11 C6 18.59 6 26.18 6 34 C4.02 34 2.04 34 0 34 C0 22.78 0 11.56 0 0 Z " fill="#D88547" transform="translate(621,968)"/>
<path d="M0 0 C0.33 0 0.66 0 1 0 C1.02689216 1.47906892 1.04634621 2.95827483 1.0625 4.4375 C1.07410156 5.26121094 1.08570313 6.08492187 1.09765625 6.93359375 C1 9 1 9 0 10 C-0.12533087 12.98223174 -0.18611578 15.94241634 -0.20532227 18.92602539 C-0.21522186 19.86251419 -0.22512146 20.79900299 -0.23532104 21.76387024 C-0.26703753 24.87510608 -0.29173341 27.98635722 -0.31640625 31.09765625 C-0.33696703 33.24857492 -0.35796325 35.39948946 -0.37937927 37.55039978 C-0.4346905 43.22377189 -0.48405972 48.89718101 -0.53222656 54.57061768 C-0.58237567 60.35505484 -0.63809606 66.13943796 -0.69335938 71.92382812 C-0.80105158 83.28250598 -0.90247182 94.64123065 -1 106 C-1.33 106 -1.66 106 -2 106 C-2.04639269 93.36056832 -2.08190449 80.72115698 -2.10362434 68.08165741 C-2.11405011 62.21228523 -2.12818737 56.34297141 -2.15087891 50.47363281 C-2.17265017 44.80670093 -2.18457771 39.1398251 -2.18975449 33.47285461 C-2.19344254 31.3135744 -2.20064436 29.15429717 -2.21146011 26.99504089 C-2.22603183 23.96472606 -2.22797555 20.93464125 -2.22705078 17.90429688 C-2.23424133 17.01668671 -2.24143188 16.12907654 -2.24884033 15.21456909 C-2.23106343 9.81175973 -1.51376221 5.1916753 0 0 Z " fill="#F1D8C1" transform="translate(467,608)"/>
<path d="M0 0 C0.91644287 0.00523682 1.83288574 0.01047363 2.77709961 0.01586914 C3.76645508 0.0190918 4.75581055 0.02231445 5.77514648 0.02563477 C6.81606445 0.03401367 7.85698242 0.04239258 8.92944336 0.05102539 C10.49662109 0.05779297 10.49662109 0.05779297 12.09545898 0.06469727 C14.68600996 0.07652627 17.27644895 0.0930085 19.86694336 0.11352539 C19.86694336 1.10352539 19.86694336 2.09352539 19.86694336 3.11352539 C12.60694336 2.78352539 5.34694336 2.45352539 -2.13305664 2.11352539 C-2.13305664 12.34352539 -2.13305664 22.57352539 -2.13305664 33.11352539 C5.12694336 33.11352539 12.38694336 33.11352539 19.86694336 33.11352539 C19.86694336 33.44352539 19.86694336 33.77352539 19.86694336 34.11352539 C12.27694336 34.11352539 4.68694336 34.11352539 -3.13305664 34.11352539 C-3.15596752 29.43206828 -3.17589396 24.75080437 -3.18798828 20.06933594 C-3.19302821 18.47557925 -3.19986014 16.8818272 -3.20849609 15.28808594 C-3.22057663 13.00202286 -3.22628819 10.71602072 -3.23071289 8.42993164 C-3.23587418 7.71325821 -3.24103546 6.99658478 -3.24635315 6.25819397 C-3.24654927 4.54288867 -3.19497671 2.82771273 -3.13305664 1.11352539 C-2.13305664 0.11352539 -2.13305664 0.11352539 0 0 Z " fill="#E2A979" transform="translate(560.133056640625,967.886474609375)"/>
<path d="M0 0 C0.33 0 0.66 0 1 0 C1.33 4.29 1.66 8.58 2 13 C2.33 11.35 2.66 9.7 3 8 C3.33 8 3.66 8 4 8 C4 15.92 4 23.84 4 32 C2.68 32 1.36 32 0 32 C0 21.44 0 10.88 0 0 Z " fill="#C75C14" transform="translate(622,969)"/>
<path d="M0 0 C0.33 0 0.66 0 1 0 C1 9.24 1 18.48 1 28 C-0.32 28 -1.64 28 -3 28 C-3 21.07 -3 14.14 -3 7 C-2.34 7 -1.68 7 -1 7 C-0.67 4.69 -0.34 2.38 0 0 Z " fill="#C85911" transform="translate(380,973)"/>
<path d="M0 0 C0.66 0 1.32 0 2 0 C2.64995297 1.41478135 3.29478722 2.83191487 3.9375 4.25 C4.29714844 5.03890625 4.65679687 5.8278125 5.02734375 6.640625 C6 9 6 9 7 13 C3.04 13 -0.92 13 -5 13 C-2.05357143 3.89285714 -2.05357143 3.89285714 0 0 Z " fill="#F7E9DC" transform="translate(440,976)"/>
<path d="M0 0 C0.55171875 0.30679688 1.1034375 0.61359375 1.671875 0.9296875 C4.20540121 2.09442941 6.51171762 2.62057956 9.25 3.125 C10.14203125 3.29257812 11.0340625 3.46015625 11.953125 3.6328125 C12.96632813 3.81457031 12.96632813 3.81457031 14 4 C14 4.33 14 4.66 14 5 C12.865625 5.12375 11.73125 5.2475 10.5625 5.375 C8.7990625 5.684375 8.7990625 5.684375 7 6 C6.67 6.66 6.34 7.32 6 8 C9.3 8 12.6 8 16 8 C16 8.33 16 8.66 16 9 C5.26424011 9.68769992 5.26424011 9.68769992 1.3125 7.25 C0.549375 6.5075 -0.21375 5.765 -1 5 C-1 1 -1 1 0 0 Z " fill="#D47C3D" transform="translate(758,993)"/>
<path d="M0 0 C11.17506436 -0.39058477 11.17506436 -0.39058477 15 2 C16.3125 4.125 16.3125 4.125 17 6 C15.25 7.125 15.25 7.125 13 8 C11.125 7.1875 11.125 7.1875 9 6 C7.00889599 5.61709538 5.00899487 5.27395385 3 5 C3.33 4.01 3.66 3.02 4 2 C2.68 1.34 1.36 0.68 0 0 Z " fill="#D07633" transform="translate(763,968)"/>
<path d="M0 0 C3.42931954 3.7559214 4.56429083 8.23466745 6 13 C4.02 13 2.04 13 0 13 C-2.22641709 8.67813153 -1.9957658 5.70725649 -1 1 C-0.67 0.67 -0.34 0.34 0 0 Z " fill="#D47433" transform="translate(452,989)"/>
<path d="M0 0 C3.125 -0.1875 3.125 -0.1875 6 0 C5.34 1.98 4.68 3.96 4 6 C3.34 6 2.68 6 2 6 C2 6.99 2 7.98 2 9 C0.35 9.33 -1.3 9.66 -3 10 C-2.25 3.375 -2.25 3.375 0 0 Z " fill="#CA6923" transform="translate(438,969)"/>
<path d="M0 0 C0.33 0 0.66 0 1 0 C0.88637738 1.4800841 0.75877092 2.95910074 0.625 4.4375 C0.55539062 5.26121094 0.48578125 6.08492187 0.4140625 6.93359375 C0.27742187 7.61550781 0.14078125 8.29742188 0 9 C-2.64458379 10.32229189 -4.67761301 10.09677194 -7.625 10.0625 C-8.62789062 10.05347656 -9.63078125 10.04445313 -10.6640625 10.03515625 C-11.43492187 10.02355469 -12.20578125 10.01195312 -13 10 C-12.67 9.01 -12.34 8.02 -12 7 C-10.9275 6.896875 -9.855 6.79375 -8.75 6.6875 C-5.11844618 6.02171513 -3.56055171 5.56055171 -1 3 C-0.67 2.01 -0.34 1.02 0 0 Z " fill="#CB651B" transform="translate(777,991)"/>
<path d="M0 0 C0.33 0 0.66 0 1 0 C1.04898438 0.69867187 1.09796875 1.39734375 1.1484375 2.1171875 C1.22320313 3.02726563 1.29796875 3.93734375 1.375 4.875 C1.44460938 5.77992188 1.51421875 6.68484375 1.5859375 7.6171875 C1.79568132 10.17941903 1.79568132 10.17941903 4 12 C1.35261084 13.4606285 0.10551666 14 -3 14 C-3 11.03 -3 8.06 -3 5 C-2.34 5 -1.68 5 -1 5 C-0.67 3.35 -0.34 1.7 0 0 Z " fill="#C35C14" transform="translate(561,987)"/>
<path d="M0 0 C7.26 0 14.52 0 22 0 C22 0.99 22 1.98 22 3 C14.74 2.67 7.48 2.34 0 2 C0 1.34 0 0.68 0 0 Z " fill="#D78C50" transform="translate(558,968)"/>
<path d="M0 0 C1.32 0 2.64 0 4 0 C4.05406122 1.93719378 4.09282025 3.87481921 4.125 5.8125 C4.14820313 6.89144531 4.17140625 7.97039063 4.1953125 9.08203125 C4 12 4 12 2 15 C1.34 15 0.68 15 0 15 C0 10.05 0 5.1 0 0 Z " fill="#C65E15" transform="translate(558,970)"/>
<path d="M0 0 C4.95 0 9.9 0 15 0 C15 1.32 15 2.64 15 4 C10.05 3.67 5.1 3.34 0 3 C0 2.01 0 1.02 0 0 Z " fill="#CE6D29" transform="translate(503,997)"/>
<path d="M0 0 C1.89685547 0.05220703 1.89685547 0.05220703 3.83203125 0.10546875 C5.74048828 0.14607422 5.74048828 0.14607422 7.6875 0.1875 C9.15123047 0.23970703 9.15123047 0.23970703 10.64453125 0.29296875 C10.31453125 1.28296875 9.98453125 2.27296875 9.64453125 3.29296875 C4.36453125 3.29296875 -0.91546875 3.29296875 -6.35546875 3.29296875 C-3.35546875 0.29296875 -3.35546875 0.29296875 0 0 Z " fill="#C45C15" transform="translate(439.35546875,989.70703125)"/>
<path d="M0 0 C0 4.29 0 8.58 0 13 C-0.99 13 -1.98 13 -3 13 C-3 9.04 -3 5.08 -3 1 C-1 0 -1 0 0 0 Z " fill="#CF661E" transform="translate(706,988)"/>
<path d="M0 0 C0.66 0.66 1.32 1.32 2 2 C-1.63 5.63 -5.26 9.26 -9 13 C-9.99 12.67 -10.98 12.34 -12 12 C-8.04 8.04 -4.08 4.08 0 0 Z " fill="#53341F" transform="translate(431,400)"/>
<path d="M0 0 C2.77245014 -0.13487595 5.53837088 -0.23400807 8.3125 -0.3125 C9.49102539 -0.3753418 9.49102539 -0.3753418 10.69335938 -0.43945312 C12.90027433 -0.48640876 14.84283979 -0.47422058 17 0 C19.06889398 2.42491781 20 3.80030995 20 7 C19.01 6.67 18.02 6.34 17 6 C16.67 5.01 16.34 4.02 16 3 C12.70298938 1.65192323 9.2645039 1.89929887 5.75 1.9375 C4.67234375 1.94652344 3.5946875 1.95554687 2.484375 1.96484375 C1.25460937 1.98224609 1.25460937 1.98224609 0 2 C0 1.34 0 0.68 0 0 Z " fill="#F5E9DD" transform="translate(432,994)"/>
<path d="M0 0 C0.99 0.33 1.98 0.66 3 1 C0.03 3.97 -2.94 6.94 -6 10 C-6.99 9.67 -7.98 9.34 -9 9 C-7.87895467 7.68412059 -6.75303035 6.37239647 -5.625 5.0625 C-4.99851562 4.33160156 -4.37203125 3.60070312 -3.7265625 2.84765625 C-2 1 -2 1 0 0 Z " fill="#F8EADF" transform="translate(481,589)"/>
<path d="M0 0 C1.32 0.66 2.64 1.32 4 2 C4 3.32 4 4.64 4 6 C0 6 0 6 -3 4 C-2.01 2.68 -1.02 1.36 0 0 Z " fill="#D87D3B" transform="translate(775,969)"/>
<path d="M0 0 C2.64 0 5.28 0 8 0 C8 0.99 8 1.98 8 3 C5.03 3 2.06 3 -1 3 C-0.67 2.01 -0.34 1.02 0 0 Z " fill="#C95D11" transform="translate(765,998)"/>
<path d="M0 0 C2.97 0 5.94 0 9 0 C8.67 0.99 8.34 1.98 8 3 C6.15234375 3.73046875 6.15234375 3.73046875 3.9375 4.1875 C3.20402344 4.34605469 2.47054687 4.50460937 1.71484375 4.66796875 C0.86599609 4.83232422 0.86599609 4.83232422 0 5 C0 3.33333333 0 1.66666667 0 0 Z " fill="#C55C0F" transform="translate(763,969)"/>
<path d="M0 0 C0.66 0 1.32 0 2 0 C2.99 3.3 3.98 6.6 5 10 C4.34 9.67 3.68 9.34 3 9 C3 8.01 3 7.02 3 6 C1.68 6.33 0.36 6.66 -1 7 C-0.67 4.69 -0.34 2.38 0 0 Z " fill="#CFC3BA" transform="translate(502,879)"/>
<path d="M0 0 C0.66 0 1.32 0 2 0 C2 2.64 2 5.28 2 8 C1.01 8 0.02 8 -1 8 C-1.04241723 5.66705225 -1.04092937 3.33297433 -1 1 C-0.67 0.67 -0.34 0.34 0 0 Z " fill="#CF6A21" transform="translate(624,993)"/>
<path d="M0 0 C2.31 0 4.62 0 7 0 C7 0.99 7 1.98 7 3 C4.36 3 1.72 3 -1 3 C-0.67 2.01 -0.34 1.02 0 0 Z " fill="#C55D13" transform="translate(710,969)"/>
<path d="M0 0 C2.64 0 5.28 0 8 0 C8 0.99 8 1.98 8 3 C2.25 3.125 2.25 3.125 0 2 C0 1.34 0 0.68 0 0 Z " fill="#C35E16" transform="translate(383,969)"/>
<path d="M0 0 C0.33 0 0.66 0 1 0 C1.24887295 2.10192697 1.4734719 4.20673964 1.6875 6.3125 C1.81511719 7.48425781 1.94273437 8.65601563 2.07421875 9.86328125 C2 13 2 13 -1 16 C-0.67 10.72 -0.34 5.44 0 0 Z " fill="#795E4C" transform="translate(432,894)"/>
<path d="M0 0 C0.66 0.99 1.32 1.98 2 3 C0.625 5 0.625 5 -1 7 C-1.66 7 -2.32 7 -3 7 C-3 7.99 -3 8.98 -3 10 C-3.66 10 -4.32 10 -5 10 C-3.66511872 6.40608886 -2.03977277 3.24509304 0 0 Z " fill="#634430" transform="translate(411,423)"/>
<path d="M0 0 C0.66 1.32 1.32 2.64 2 4 C0.68 5.32 -0.64 6.64 -2 8 C-2 7.34 -2 6.68 -2 6 C-2.66 5.67 -3.32 5.34 -4 5 C-3.34 5 -2.68 5 -2 5 C-1.34 3.35 -0.68 1.7 0 0 Z " fill="#D47830" transform="translate(444,970)"/>
<path d="M0 0 C2 4 2 4 1.875 6.0625 C1 8 1 8 -3 11 C-2.01 7.37 -1.02 3.74 0 0 Z " fill="#D1C6BC" transform="translate(486,924)"/>
<path d="M0 0 C0.33 1.32 0.66 2.64 1 4 C-1.97 6.475 -1.97 6.475 -5 9 C-5 4.61031544 -2.87194899 3.23094261 0 0 Z " fill="#5B3A25" transform="translate(428,915)"/>
<path d="M0 0 C1.32 0.33 2.64 0.66 4 1 C3.071875 2.1446875 3.071875 2.1446875 2.125 3.3125 C-0.05597052 5.99625809 -0.05597052 5.99625809 -2 9 C-2.25 3.375 -2.25 3.375 0 0 Z " fill="#F0EAE4" transform="translate(708,906)"/>
<path d="M0 0 C0.33 1.32 0.66 2.64 1 4 C0.360625 4.268125 -0.27875 4.53625 -0.9375 4.8125 C-3.33131686 5.88667752 -3.33131686 5.88667752 -4 9 C-4.66 8.67 -5.32 8.34 -6 8 C-4.02 5.36 -2.04 2.72 0 0 Z " fill="#E4DAD0" transform="translate(661,863)"/>
<path d="M0 0 C0.95930163 3.8372065 1.15195929 5.35212892 0 9 C-0.99 9.66 -1.98 10.32 -3 11 C-2.01 7.37 -1.02 3.74 0 0 Z " fill="#D1C5BB" transform="translate(547,894)"/>
</svg>
